<svg xmlns="http://www.w3.org/2000/svg" viewBox="0 0 80 80" aria-hidden="true">
  <defs>
    <filter id="ds" x="-20%" y="-20%" width="140%" height="140%">
      <feDropShadow dx="0" dy="2" stdDeviation="1.7" flood-color="rgba(0,0,0,0.32)"/>
    </filter>
  </defs>
  <g filter="url(#ds)">
    <path d="M30 60c0-10 4-18 10-24 3-3 6-8 5-14-6 2-10 1-15-2 0 0-3 9-6 15-2 4-4 8-4 14v11H30Z" fill="#111827" stroke="#e5e7eb" stroke-width="2" stroke-linejoin="round"/>
    <path d="M30 60h26c2 0 4 2 4 4v6H22v-6c0-2 2-4 4-4Z" fill="#111827" stroke="#e5e7eb" stroke-width="2"/>
    <path d="M41 32c3-1 7 1 8 4" stroke="#ffffff" stroke-width="2" stroke-linecap="round" opacity="0.25"/>
    <circle cx="44" cy="30" r="2" fill="#ffffff" opacity="0.9"/>
  </g>
</svg>
